<?xml version="1.0" standalone="no"?>
<!DOCTYPE svg PUBLIC "-//W3C//DTD SVG 20010904//EN"
 "http://www.w3.org/TR/2001/REC-SVG-20010904/DTD/svg10.dtd">
<svg version="1.0" xmlns="http://www.w3.org/2000/svg"
 width="596.000000pt" height="511.000000pt" viewBox="0 0 596.000000 511.000000"
 preserveAspectRatio="xMidYMid meet">

<g transform="translate(0.000000,511.000000) scale(0.100000,-0.100000)"
fill="#000000" stroke="none">
<path d="M2185 5057 c-78 -31 -166 -88 -234 -152 -103 -97 -227 -239 -326
-369 -245 -327 -426 -741 -476 -1085 -27 -194 3 -516 66 -688 13 -37 23 -69
21 -71 -6 -6 -66 94 -101 170 -130 283 -128 855 7 1268 11 36 49 125 84 199
35 74 62 136 60 138 -11 11 -118 -93 -178 -172 -112 -147 -192 -319 -247 -527
-57 -217 -65 -282 -65 -543 0 -211 2 -252 22 -338 33 -150 76 -267 158 -437
41 -85 73 -161 72 -169 -4 -17 -97 93 -173 204 -73 106 -134 243 -155 346 -29
140 -43 306 -38 459 3 126 2 140 -13 140 -20 0 -67 -57 -98 -117 -74 -146 -86
-484 -25 -723 55 -216 198 -437 438 -674 l109 -108 -60 30 c-78 40 -205 135
-268 203 -95 101 -281 383 -311 473 -10 28 -22 46 -31 46 -14 0 -15 -12 -10
-84 14 -180 99 -407 201 -541 107 -138 216 -286 216 -291 0 -3 -33 12 -72 33
-49 25 -99 63 -151 115 -114 113 -124 103 -52 -49 55 -117 118 -207 187 -267
60 -53 222 -136 315 -163 l63 -18 0 -58 c0 -70 5 -74 106 -59 113 16 113 16
106 -84 -6 -96 13 -228 36 -251 14 -14 18 -12 41 15 15 18 65 49 116 73 50 24
93 44 96 46 3 2 9 -25 12 -61 9 -96 34 -183 74 -254 28 -50 40 -62 56 -60 15
2 23 13 28 34 3 17 9 36 13 43 8 12 86 55 91 49 1 -2 17 -32 35 -68 18 -35 44
-82 59 -103 14 -22 40 -65 56 -96 39 -73 59 -74 97 -3 l28 53 -39 82 c-129
268 -144 541 -46 834 39 116 121 283 188 383 l44 65 -136 270 c-170 336 -241
501 -248 576 -5 53 -4 58 21 74 14 10 26 21 26 25 0 5 -28 17 -62 27 -59 17
-64 21 -77 58 -23 68 -26 279 -6 392 21 116 82 329 122 428 16 39 100 176 187
308 87 131 157 239 155 241 -2 2 -27 -4 -54 -15 -65 -24 -187 -122 -302 -242
-240 -252 -428 -665 -436 -962 -1 -46 -5 -78 -8 -72 -22 39 -34 180 -33 377 0
183 3 230 22 314 44 199 134 432 268 696 144 285 245 434 406 605 90 95 94
110 23 82z"/>
<path d="M3628 5003 c84 -86 191 -216 250 -305 191 -285 403 -735 471 -1000
37 -144 51 -260 51 -423 0 -114 -20 -319 -33 -331 -2 -2 -7 40 -10 93 -17 287
-203 691 -438 947 -61 67 -195 187 -257 229 -39 28 -113 59 -120 52 -2 -2 67
-108 153 -237 178 -264 190 -284 240 -429 83 -238 122 -446 110 -579 -7 -74
-25 -200 -30 -200 -1 0 -22 7 -45 15 -47 17 -146 20 -155 6 -3 -5 19 -33 49
-61 61 -58 81 -103 71 -157 -9 -52 -96 -248 -171 -391 l-66 -123 -86 173 -86
173 -16 -85 c-40 -211 -121 -358 -262 -477 -55 -47 -214 -140 -223 -131 -2 1
35 66 82 143 225 372 308 607 306 870 -2 300 -130 515 -378 636 -126 61 -188
74 -355 74 -127 0 -154 -3 -219 -24 -135 -44 -263 -147 -332 -266 -76 -130
-98 -325 -49 -434 24 -54 85 -111 119 -111 18 0 41 43 41 77 0 37 27 27 37
-14 11 -48 41 -55 84 -19 17 15 34 24 39 21 12 -7 35 24 75 100 44 85 68 112
120 136 55 26 119 24 181 -5 138 -64 146 -211 24 -455 -69 -136 -156 -264
-310 -457 -193 -240 -299 -422 -359 -613 -48 -154 -56 -205 -55 -371 1 -134 4
-168 27 -252 65 -245 192 -428 408 -588 281 -208 567 -241 853 -99 145 72 300
201 365 304 17 28 35 49 38 49 4 -1 16 -19 28 -40 31 -55 54 -51 85 13 14 28
33 60 42 70 15 17 89 152 100 183 9 25 97 -26 104 -59 15 -75 46 -75 90 -1 37
62 65 170 67 260 1 33 4 59 7 58 153 -76 205 -106 217 -125 18 -27 39 -30 51
-5 5 9 15 54 22 99 9 63 10 97 1 149 -7 36 -9 69 -6 73 4 3 32 4 63 2 32 -2
77 -4 102 -5 l45 -1 5 58 5 59 96 32 c239 80 370 204 465 439 47 115 32 119
-69 20 -50 -50 -108 -96 -150 -118 -37 -21 -70 -36 -72 -33 -2 2 48 73 112
158 137 182 193 276 228 379 57 173 81 381 45 381 -5 0 -18 -24 -29 -54 -38
-101 -212 -374 -300 -470 -40 -44 -171 -141 -245 -181 -36 -20 -66 -35 -66
-33 0 1 58 62 128 133 148 152 240 277 317 430 82 165 99 249 100 500 0 225
-14 317 -65 420 -28 58 -89 135 -106 135 -5 0 -9 -107 -9 -237 -1 -270 -15
-382 -66 -513 -35 -92 -119 -228 -206 -336 -79 -97 -83 -76 -14 69 136 286
185 489 184 757 -1 395 -109 783 -295 1062 -67 100 -219 261 -226 240 -2 -7
28 -77 66 -155 78 -156 118 -280 156 -475 41 -214 49 -310 43 -506 -7 -207
-25 -327 -66 -432 -28 -71 -111 -227 -118 -221 -1 2 7 30 18 63 43 121 60 232
66 424 4 142 2 209 -10 285 -53 333 -240 749 -482 1074 -235 316 -486 546
-619 568 l-37 6 59 -60z m-1375 -1720 c-95 -120 -147 -322 -124 -483 5 -41 8
-76 6 -79 -3 -2 -15 18 -27 45 -62 138 -9 372 118 513 53 59 72 61 27 4z m669
-400 c54 -59 63 -89 63 -218 0 -85 -6 -137 -18 -180 -51 -172 -144 -376 -267
-582 -155 -262 -240 -575 -240 -881 0 -251 46 -443 156 -652 89 -168 118 -198
251 -256 88 -38 73 -44 -37 -14 -100 28 -240 97 -322 159 -182 138 -300 349
-343 613 -59 368 48 692 386 1164 261 363 356 550 366 719 4 66 1 86 -15 118
-23 44 -16 48 20 10z m604 -735 c-23 -143 -70 -278 -128 -364 -49 -74 -91
-110 -202 -175 -80 -47 -160 -129 -196 -203 -17 -35 -38 -102 -48 -156 -18
-94 -18 -95 -30 -61 -33 94 -23 261 25 416 29 94 47 125 71 125 29 0 153 64
219 113 117 87 232 259 279 417 19 65 19 65 22 26 2 -21 -4 -84 -12 -138z"/>
<path d="M2351 2643 c-13 -3 -26 -13 -28 -24 -6 -20 -23 -27 -23 -8 0 5 -4 8
-9 5 -5 -4 -1 -23 9 -44 9 -20 23 -62 30 -92 20 -87 36 -120 60 -120 20 0 20
4 18 142 -3 153 -2 151 -57 141z"/>
</g>
</svg>
