<?xml version="1.0" standalone="no"?>
<!DOCTYPE svg PUBLIC "-//W3C//DTD SVG 20010904//EN"
 "http://www.w3.org/TR/2001/REC-SVG-20010904/DTD/svg10.dtd">
<svg version="1.0" xmlns="http://www.w3.org/2000/svg"
 width="702.000000pt" height="981.000000pt" viewBox="0 0 702.000000 981.000000"
 preserveAspectRatio="xMidYMid meet">

<g transform="translate(0.000000,981.000000) scale(0.100000,-0.100000)"
fill="white" stroke="none">
<path d="M2941 9800 c-131 -28 -265 -133 -321 -252 -56 -121 -58 -268 -3 -392
24 -54 64 -98 366 -403 l340 -342 -34 -5 c-19 -2 -88 -9 -155 -15 -604 -53
-1206 -287 -1697 -658 -141 -107 -231 -186 -375 -327 -540 -530 -869 -1137
-996 -1836 -44 -244 -51 -338 -50 -665 0 -327 12 -449 65 -690 91 -412 281
-821 546 -1173 100 -134 269 -328 349 -401 126 -115 289 -157 449 -116 224 59
374 293 335 522 -19 118 -54 176 -196 330 -403 437 -566 776 -615 1277 -15
157 -7 507 16 656 55 366 183 699 385 1003 271 407 685 763 1110 953 211 94
465 166 685 193 50 6 106 13 125 16 39 5 81 51 -396 -435 -246 -251 -275 -293
-293 -425 -29 -208 78 -400 277 -497 64 -31 72 -33 182 -33 187 0 181 -4 615
421 198 194 605 598 905 899 l545 546 -880 875 c-484 481 -902 889 -930 908
-27 18 -72 41 -100 50 -59 21 -193 29 -254 16z"/>
<path d="M5590 7304 c-218 -59 -368 -293 -331 -518 19 -115 56 -181 178 -313
200 -217 298 -345 396 -514 135 -234 206 -471 238 -783 15 -152 6 -513 -16
-656 -81 -531 -306 -982 -684 -1374 -358 -371 -774 -612 -1252 -725 -82 -19
-293 -51 -339 -51 l-44 0 316 318 c277 277 320 325 347 380 113 241 19 513
-217 630 -76 37 -77 37 -202 37 -217 0 -122 79 -1170 -970 l-895 -897 889
-883 c558 -554 909 -895 940 -914 126 -76 301 -81 446 -13 76 35 172 134 210
214 58 125 58 280 0 408 -27 59 -61 95 -371 402 l-341 336 43 6 c24 2 105 10
179 16 775 64 1498 420 2095 1031 580 593 885 1220 987 2029 21 165 17 703 -5
855 -75 498 -232 908 -501 1305 -176 261 -453 565 -557 613 -31 15 -76 31
-100 36 -62 15 -175 12 -239 -5z"/>
</g>
</svg>
